<?xml version="1.0" encoding="UTF-8"?>
<svg id="Layer_1" data-name="Layer 1" xmlns="http://www.w3.org/2000/svg" version="1.1" viewBox="0 0 24 24">
  <defs>
    <style>
      .cls-1 {
        fill: #000;
        stroke-width: 0px;
      }
    </style>
  </defs>
  <g id="copy">
    <path id="Vector" class="cls-1" d="M16.5,8h-1.4v-3.1l-3.8-3.8h-6.4c-.6,0-1.1.5-1.1,1.2v12.7c0,.6.5,1.2,1.1,1.2h4.1v5.8c0,.6.5,1.2,1.1,1.2h0s9.1,0,9.1,0c.6,0,1.1-.5,1.1-1.2v-10l-3.8-3.9ZM10.7,2.2l3,3.1h-3v-3.1ZM8.9,9.1v5.6h-3.8V2.4h4.3v3c0,.5.1.8.3,1,.2.2.5.3.7.3h3.3s0,1.3,0,1.3h-3.7c-.6,0-1.1.5-1.1,1.2ZM18.9,21.6h-8.6v-12.3h4.3v3c0,.5.1.8.3,1,.2.2.5.3.7.3h3.3s0,8,0,8ZM15.9,12.3v-3.1l3,3.1h-3Z"/>
  </g>
</svg>