<?xml version="1.0" encoding="UTF-8"?>
<svg id="Layer_1" data-name="Layer 1" xmlns="http://www.w3.org/2000/svg" version="1.1" viewBox="0 0 24 24">
  <defs>
    <style>
      .cls-1 {
        fill: #000;
        stroke-width: 0px;
      }
    </style>
  </defs>
  <g id="sync">
    <path id="Vector" class="cls-1" d="M7.5,10.4c0-.2-.2-.3-.4-.4-.2-.1-.4-.2-.6-.2h-.7c.3-.9.9-1.8,1.6-2.5,2.6-2.6,6.8-2.6,9.4,0,.2.2.5.3.8.3.3,0,.6-.1.8-.3.2-.2.3-.5.3-.8,0-.3-.1-.6-.3-.8-3.4-3.4-9-3.4-12.5,0-1.1,1.1-1.9,2.5-2.3,4h-1.4c-.2,0-.4,0-.6.2-.2.1-.3.2-.4.4,0,.2-.1.4-.1.6,0,.2,0,.4.2.6l2.2,3.3c.1.2.2.3.4.4.2,0,.3.1.5.1s.4,0,.5-.1c.2,0,.3-.2.4-.4l2.2-3.3c.1-.2.2-.4.2-.6,0-.2,0-.4-.1-.6Z"/>
    <path id="Vector_2" data-name="Vector 2" class="cls-1" d="M22.8,12.5l-2.2-3.3c-.4-.6-1.4-.6-1.8,0l-2.2,3.3c-.1.2-.2.4-.2.6,0,.2,0,.4.1.6,0,.2.2.3.4.4.2.1.4.2.6.2h.7c-.3.9-.9,1.8-1.6,2.5-2.6,2.6-6.8,2.6-9.4,0-.2-.2-.5-.3-.8-.3-.3,0-.6.1-.8.3-.2.2-.3.5-.3.8,0,.3.1.6.3.8,1.7,1.7,4,2.6,6.2,2.6s4.5-.9,6.2-2.6c1.1-1.1,1.9-2.5,2.3-4h1.4c.2,0,.4,0,.6-.2.2-.1.3-.2.4-.4,0-.2.1-.4.1-.6,0-.2,0-.4-.2-.6Z"/>
  </g>
</svg>