<?xml version="1.0" encoding="UTF-8"?>
<svg id="Layer_1" data-name="Layer 1" xmlns="http://www.w3.org/2000/svg" version="1.1" viewBox="0 0 24 24">
  <defs>
    <style>
      .cls-1 {
        fill: #000;
        stroke-width: 0px;
      }
    </style>
  </defs>
  <g id="thumbsUp">
    <path id="thumbsUp_2" data-name="thumbsUp 2" class="cls-1" d="M13.6,1s0,0,0,0c.5,0,1,.2,1.4.5.5.4,1,1,1.3,1.6.3.6.5,1.3.5,2,0,.8-.2,1.6-.5,2.3-.2.6-.4,1.2-.4,1.8,0,.9.8,1.2,1.9,1.5h.4c0,0,.5.2.5.2.9,0,1.8.4,2.5,1h0c.6.6.8,1.5.7,2.3,0,.6-.4,1.1-.8,1.4.2,1.1-.3,2.3-1.3,2.8,0,.5,0,1-.3,1.4-.3.5-.7.9-1.3,1.2,0,1-.8,1.8-1.7,2-.3,0-.6,0-.9,0h0c-.5,0-1,0-1.5-.1,0,0-1.1-.1-1.4-.1-.6,0-1.3-.2-1.9-.4h0c-.4-.2-.9-.5-1.3-.8l-.4-.3c-.1-.1-.3-.2-.4-.3-.2-.2-.4-.3-.7-.4h-.6c0,0-.2-.1-.2-.1-.1,0-.3,0-.4,0h-1.6c0,0-.2,0-.3,0-.8,0-1.5-.3-1.9-.8-.5-.7-.8-1.8-.9-2.6-.1-.8-.1-1.5-.1-1.5,0-.7,0-1.4,0-1.9.1-.8.5-1.4.9-1.8.7-.6,1.5-.9,2.4-.9s.2,0,.3,0h1.3s0,0,0,0c0,0,0,0,0,0s0,0,0,0c.3,0,.6-.2.9-.4.5-.5,1-1.1,1.5-1.7l.3-.4c.7-.8,1.3-1.7,1.7-2.8.2-.6.3-1.1.2-1.7v-.4c0-.5,0-1,.1-1.4.2-.7.8-1.1,1.5-1.1ZM17.7,19.7c.3,0,.5-.2.7-.6.1-.3.1-.6,0-.8,0,0,0-.2-.1-.2,0-.4.1-.7.5-.8.4-.1.7-.4.9-.8,0-.3,0-.6-.1-.9-.1-.2-.2-.5,0-.8,0-.2.3-.4.5-.4.3,0,.6-.4.6-.7,0-.5-.3-.9-.7-1.1-.6-.3-1.3-.5-2-.6h0c-.2,0-.4-.1-.6-.1-.2,0-.3,0-.5-.1-1.2-.2-2.1-1.2-2.3-2.4h0c0-.8.1-1.6.5-2.3.2-.6.4-1.2.4-1.8,0-.6-.2-1.3-.5-1.9-.3-.5-.7-.9-1.2-1-.4.1-.2,1.1-.2,1.1h0c0,.7,0,1.5-.1,2.2-.3,1-.7,1.8-1.4,2.6l-.4.5c-.6.8-1.2,1.6-1.9,2.3-.1.2-.3.3-.5.5,0,0,0,0,0,0,0,0,0,0,0,0-.4.3-1,.6-1.5.6h0c-.4,0-.9.2-1,.5-.4.8-.4,2.5-.4,2.5,0,1,0,1.7.2,2.4,0,.3.2.7.5.9.3.2.6.4.9.4s0,0,0,0c0,0,0,0,.1,0,.3,0,.6,0,.8.2.3.1,1.5,1.1,1.6,1.1,1,.7,2.3,1,2.3,1,.9.2,1.8.3,2.8.3h.1s.1,0,.2,0c.3,0,.5,0,.8,0h0c.2,0,.3-.1.4-.2.1-.2.1-.5,0-.7,0-.2,0-.4,0-.5h0c.2-.2.4-.4.7-.4h.2ZM5.3,18.9c-.3-.6-.4-1.2-.5-1.9-.1-1.1-.1-2.2,0-3.3,0-.5.2-.9.4-1.4-.4,0-.8.2-1.1.4-.4.7-.4,2.7-.4,2.7,0,1.2,0,2.1.6,3.1.2.2.5.3.8.3,0,0,.2,0,.2,0Z"/>
  </g>
</svg>